<svg xmlns="http://www.w3.org/2000/svg">
  <defs>
    <symbol id="icon-gs1" viewBox="0 0 64 64">
        <g transform="matrix(1,0,0,1,0,-64)">
            <g transform="matrix(1,0,0,1,-64,-896)">
                <g id="Great_Sword_Rank_01">
                    <path id="background" d="M96,1002C96,1002 95.321,1011.32 99,1015C102.679,1018.68 112,1018 112,1018L112,1014C112,1014 107.679,1014.69 104.493,1011.51C101.308,1008.32 102,1001 102,1001L96,1002ZM87.503,1008.61L93.314,1006.01L93,982C93,982 111.265,967.616 111.265,967.202C111.265,966.581 109.264,965 108,965C106.736,965 88,979 88,979L87.503,1008.61ZM102.5,981.5L94.5,981.5L94.5,1000.5L102.5,1000.5L102.5,981.5Z" style="fill-opacity:0.76;"/>
                    <path id="color_02" d="M91,1007L105,1001C105,1001 103,993.88 103,985C103,976.12 113.002,967 111,967C108.998,967 101.571,971.581 99,974C96.429,976.419 91,980.677 91,987L91,1007ZM98.5,993C100.432,993 102,994.568 102,996.5C102,998.432 100.432,1000 98.5,1000C96.568,1000 95,998.432 95,996.5C95,994.568 96.568,993 98.5,993ZM98.5,982C100.432,982 102,983.568 102,985.5C102,987.432 100.432,989 98.5,989C96.568,989 95,987.432 95,985.5C95,983.568 96.568,982 98.5,982Z" style="fill:rgb(107,107,107);"/>
                    <path id="color_01" d="M106.977,1012.79C107.894,1012.79 108.443,1017.76 107.481,1018.73C106.519,1019.69 103,1018.12 103,1017.12C103,1016.12 106.06,1012.79 106.977,1012.79ZM113,1014L111,1014L111,1018L113,1018L113,1014ZM104.184,1010.25C105.069,1011.14 102.851,1013.25 102,1014C101.149,1014.75 99.747,1016.84 98.5,1015.59C97.253,1014.35 98.759,1013.25 100.132,1012C101.506,1010.75 103.299,1009.37 104.184,1010.25ZM89,1007.92L78,1013L78,989C78,983.905 79.472,978.528 87,971C93.528,964.472 105.478,965 108,965C110.522,965 101.951,968.588 96,974C90.668,978.849 89,982.639 89,987L89,1007.92ZM102.747,1005.62C103.928,1006.8 100.921,1008.5 100,1009C99.079,1009.5 96,1011.06 96,1009C96,1006.94 95.891,1008.79 99,1007C102.109,1005.21 101.565,1004.44 102.747,1005.62ZM98.5,995C99.328,995 100,995.672 100,996.5C100,997.328 99.328,998 98.5,998C97.672,998 97,997.328 97,996.5C97,995.672 97.672,995 98.5,995ZM98.5,984C99.328,984 100,984.672 100,985.5C100,986.328 99.328,987 98.5,987C97.672,987 97,986.328 97,985.5C97,984.672 97.672,984 98.5,984Z" style="fill:rgb(181,181,181);"/>
                </g>
            </g>
        </g>
    </symbol>
    <symbol id="icon-db1" viewBox="0 0 64 64">
        <g transform="matrix(1,0,0,1,0,-192)">
            <g transform="matrix(1,0,0,1,0,-544)">
                <g id="Dual_Blades_Rank_01" transform="matrix(1,0,0,1,-192,-224)">
                    <g id="background" transform="matrix(1,0,0,1,0,544)">
                        <path d="M241,454L241,462L234,468L234,455L231,455L234,451L241,454ZM208,454L208,462L215,468L215,455L218,455L215,451L208,454Z" style="fill-opacity:0.75;"/>
                    </g>
                    <g id="color_02" transform="matrix(1,0,0,1,0,544)">
                        <path d="M234.839,470.448C234.951,469.761 235.091,469.087 235.261,468.604C235.777,467.133 237.028,464.613 236.007,464C234.985,463.386 233.457,465.703 232.292,466.819C231.899,467.196 231.34,467.645 230.772,468.076C229.809,468.28 228.992,468.88 228.5,469.697L228.5,469.697L228.5,469.697C228.183,470.224 228,470.841 228,471.5C228,473.432 229.568,475 231.5,475C232.773,475 233.887,474.319 234.5,473.303L234.5,473.303L234.5,473.303C234.817,472.776 235,472.159 235,471.5C235,471.134 234.944,470.78 234.839,470.448ZM214.161,470.448C214.049,469.761 213.909,469.087 213.739,468.604C213.223,467.133 211.972,464.613 212.993,464C214.015,463.386 215.543,465.703 216.708,466.819C217.101,467.196 217.66,467.645 218.228,468.076C219.191,468.28 220.008,468.88 220.5,469.697L220.5,469.697L220.5,469.697C220.817,470.224 221,470.841 221,471.5C221,473.432 219.432,475 217.5,475C216.227,475 215.113,474.319 214.5,473.303L214.5,473.303L214.5,473.303C214.183,472.776 214,472.159 214,471.5C214,471.134 214.056,470.78 214.161,470.448Z" style="fill:rgb(61,61,61);"/>
                    </g>
                    <g id="color_01" transform="matrix(1,0,0,1,0,544)">
                        <path d="M227.336,454.757C228.209,453.524 230.009,453.038 231.355,453.674C231.355,453.674 235.648,454.843 238.942,456.261C242.236,457.679 246.529,460.848 246.529,460.848C247.875,461.484 248.259,463.002 247.386,464.235C246.514,465.469 244.713,465.954 243.367,465.318C243.367,465.318 240.639,463.439 236.269,460.963C231.898,458.486 228.193,458.145 228.193,458.145C226.847,457.509 226.463,455.991 227.336,454.757ZM221.664,454.757C220.791,453.524 218.991,453.038 217.645,453.674C217.645,453.674 213.352,454.843 210.058,456.261C206.764,457.679 202.471,460.848 202.471,460.848C201.125,461.484 200.741,463.002 201.614,464.235C202.486,465.469 204.287,465.954 205.633,465.318C205.633,465.318 208.361,463.439 212.731,460.963C217.102,458.486 220.807,458.145 220.807,458.145C222.153,457.509 222.537,455.991 221.664,454.757ZM241,454L234,451C234,451 240,441 240,434C240,427 232,422 232,422C232,422 247,425 247,435C247,445 241,454 241,454ZM208,454L215,451C215,451 209,441 209,434C209,427 217,422 217,422C217,422 202,425 202,435C202,445 208,454 208,454Z" style="fill:rgb(181,181,181);"/>
                    </g>
                </g>
            </g>
        </g>
    </symbol>
    <symbol id="icon-set1" viewBox="0 0 64 64">
        <g transform="matrix(1,0,0,1,0,-384)">
            <g id="Set_Rank_01" transform="matrix(1,0,0,1,0,-512)">
                <g transform="matrix(1,0,0,1,-384,0)">
                    <path d="M431,913L431,924.002L427,927L428,930L428,934L431,935L431,937L428,938L405,938L402,937L402,935L405,934L405,930L406,927L402,924.002L402,913L400,911L396,915L397,916L397,918L396,919L397,920L397,922L395,924.5L396,927L396,929L395,929.5L396,930L396,932L398,932L399,934L399,936L398,937L396,937L395,938L391,938L390,937L390,935L391,933.5L390,932L390,930L391,929.5L390,929L390,927L391,924.5L390,922L390,920L391,919L390,918L393,915L393,912L402,903L411,903L411,905L422,905L422,903L431,903L440,912L440,915L443,918L442,919L443,920L443,922L442,924.5L443,927L443,929L442,929.5L443,930L443,932L442,933.5L443,935L443,937L442,938L438,938L437,937L435,937L434,936L434,934L435,932L437,932L437,930L438,929.5L437,929L437,927L438,924.5L436,922L436,920L437,919L436,918L436,916L437,915L433,911L431,913Z" style="fill-opacity:0.76;"/>
                </g>
                <g id="Color_03" transform="matrix(1,0,0,1,-384,0)">
                    <path d="M399,956L399,953L406,953L408,949L425,949L427,953L434,953L434,956L399,956ZM419,941L419,947L414,947L414,941L419,941Z" style="fill:rgb(109,109,109);"/>
                </g>
                <g id="Color_02" transform="matrix(1,0,0,1,-384,0)">
                    <path d="M443,937L437,937L437,941L440,941C441.656,941 443,939.656 443,938L443,937ZM390,937L396,937L396,941L393,941C391.344,941 390,939.656 390,938L390,937ZM402,939L402,937L431,937L431,939L402,939ZM435,932L433,934L433,937L435,937L435,932ZM398,932L400,934L400,937L398,937L398,932ZM402,935L405,932L428,932L431,935L402,935ZM431,918L427,918L427,922L431,922L431,918ZM402,918L406,918L406,922L402,922L402,918ZM402,915L407,910L407,913L411,913L411,905L422,905L422,913L426,913L426,910L431,915L431,916L425,916L425,919L408,919L408,916L402,916L402,915ZM438,910L441,910L441,916L436,916L436,914L438,914L438,910ZM395,910L392,910L392,916L397,916L397,914L395,914L395,910Z" style="fill:rgb(136,136,136);"/>
                </g>
                <g id="Color_01" transform="matrix(1,0,0,1,-384,0)">
                    <path d="M396,932L390,932L390,935L396,935L396,932ZM437,932L443,932L443,935L437,935L437,932ZM396,929L390,929L390,930L396,930L396,929ZM437,929L443,929L443,930L437,930L437,929ZM402,924L402,926L405,928L405,930L428,930L428,928L431,926L431,924L425,924L425,921L408,921L408,924L402,924ZM390,922L397,922L396,927L390,927L390,922ZM443,922L436,922L437,927L443,927L443,922ZM397,918L390,918L390,920L397,920L397,918ZM436,918L443,918L443,920L436,920L436,918ZM409,901L399,901L397,903L397,912L402,912L409,905L409,901ZM424,901L434,901L436,903L436,912L431,912L424,905L424,901Z" style="fill:rgb(190,190,190);"/>
                </g>
            </g>
        </g>
    </symbol>
    <symbol id="icon-hbg1" viewBox="0 0 64 64">
        <g transform="matrix(1,0,0,1,0,-768)">
            <g transform="matrix(1,0,0,1,0,-544)">
                <g id="Heavy_Bowgun_Rank_01" transform="matrix(1,0,0,1,-768,352)">
                    <path id="background" d="M793.4,972L795,968L796,967L804,967L805,968L806.6,972L810,972L811,973L811,979L808,982L805,982L805,991L810,991L811,992L811,993L810,994L804,994L804,996L810,1002L809,1003L809,1011L791,1011L791,1003L790,1002L796,996L795,991L795,982L792,982L789,979L789,973L790,972L793.4,972Z" style="fill-opacity:0.77;"/>
                    <path id="color_03" d="M802,1002L802,1007.33C802,1007.7 801.701,1008 801.333,1008L798.667,1008C798.299,1008 798,1007.7 798,1007.33L798,1002L802,1002ZM798,999L798,996C798,994.896 798.896,994 800,994C801.104,994 802,994.896 802,996L802,999L798,999Z" style="fill:rgb(61,61,61);"/>
                    <path id="color_02" d="M803,1002L810,1002L810,1018L790,1018L790,1002L797,1002L797,1009C797,1009.55 797.448,1010 798,1010L802,1010C802.552,1010 803,1009.55 803,1009L803,1002ZM815,1007C814.448,1007 814,1006.55 814,1006L814,994L810,994L810,991L816,991C816.552,991 817,991.448 817,992L817,1004L820,1004C820.552,1004 821,1004.45 821,1005L821,1006C821,1006.55 820.552,1007 820,1007L815,1007ZM797,999L793,999L793,990C793,989.448 793.448,989 794,989L806,989C806.552,989 807,989.448 807,990L807,999L803,999L803,995C803,993.344 801.656,992 800,992C798.344,992 797,993.344 797,995L797,999ZM805,984L795,984L795,986L805,986L805,984ZM807,973C807,971.896 806.104,971 805,971L795,971C793.896,971 793,971.896 793,973L793,981C793,981.552 793.448,982 794,982L806,982C806.552,982 807,981.552 807,981L807,973ZM805,965L795,965L795,968L805,968L805,965Z" style="fill:rgb(150,150,150);"/>
                    <path id="color_01" d="M775.953,984.406C775.469,983.436 775,982.422 775,980C775,975 773.95,972 784,972L790,972L790,980C790,980 787,978 784,978C781,978 780,980 780,982L780,988C780,992 780,994 778,996L773,996C773,993.578 773.939,993.033 774.906,992.547L775.094,992.453C776.061,991.967 777,991.422 777,989C777,986.578 776.531,985.564 776.047,984.594L775.953,984.406ZM810,972L816,972C826.05,972 825,975 825,980C825,985 823,984 823,989C823,994 827,991 827,996L822,996C820,994 820,992 820,988L820,982C820,980 819,978 816,978C813,978 810,980 810,980L810,972Z" style="fill:rgb(181,181,181);"/>
                </g>
            </g>
        </g>
    </symbol>
    <symbol id="icon-helm1" viewBox="0 0 64 64">
        <g id="Helm_Rank_01" transform="matrix(1,0,0,1,0,-896)">
            <path id="background" d="M24,950L24,935L15,926L15,916L18,916L18,909L26,905L45,905L53,912L53,923L43,933L43,950L45,950L45,953.5L44.5,954L22.5,954L22,953.5L22,950L24,950Z" style="fill-opacity:0.76;"/>
            <path id="color_01" d="M41.5,954L38.5,954L38.5,952C38.5,951.448 38.052,951 37.5,951L36.5,951C35.948,951 35.5,951.448 35.5,952L35.5,954L30.5,954L30.5,952C30.5,951.448 30.052,951 29.5,951L28.5,951C27.948,951 27.5,951.448 27.5,952L27.5,954L25.5,954L25.5,952C25.5,951.448 25.052,951 24.5,951L23.5,951C22.948,951 22.5,951.448 22.5,952L22.5,954L20,954L20,949C20,948.448 20.448,948 21,948L45,948C45.552,948 46,948.448 46,949L46,954L44.5,954L44.5,952C44.5,951.448 44.052,951 43.5,951L42.5,951C41.948,951 41.5,951.448 41.5,952L41.5,954ZM25,943L29,943L32,940L41,940C42,940 42,941 42,941L42,946L25,946L25,943ZM12,927C12,927 11.992,926 12.996,926L38,926L38,918C38,918 38,917 39,917L46,917C47,917 47,918 47,918L47,923C47,924 46,924 46,924L44,924L27,941L24,941L12,929L12,927ZM34,938L44,928L46,928L50,924L50,921C50,921 50,920 51,920L53,920L53,927L42,938L34,938ZM43.5,919C44.328,919 45,919.672 45,920.5C45,921.328 44.328,922 43.5,922C42.672,922 42,921.328 42,920.5C42,919.672 42.672,919 43.5,919ZM35,917C35,917 38,913 42.5,913C47,913 50,917 50,917L53,914.5C53,914.5 47,909 42.5,909L18,909C17,909 15,911 15,912L15,916C15,916 15,917 16,917L35,917ZM22,907C22,907 26,902 29,902L42.5,902C46.5,902 53,912 53,912C53,912 45.5,907 42.5,907L22,907Z" style="fill:rgb(190,190,190);"/>
            <path id="color_02" d="M33,945C33,944.448 32.552,944 32,944L31,944C30.448,944 30,944.448 30,945L30,946L33,946L33,945ZM37,945C37,944.448 36.552,944 36,944L35,944C34.448,944 34,944.448 34,945L34,946L37,946L37,945ZM41,945C41,944.448 40.552,944 40,944L39,944C38.448,944 38,944.448 38,945L38,946L41,946L41,945ZM29,945C29,944.448 28.552,944 28,944L27,944C26.448,944 26,944.448 26,945L26,946L29,946L29,945Z" style="fill:rgb(136,136,136);"/>
        </g>
    </symbol>
    <symbol id="icon-arms1" viewBox="0 0 64 64">
        <g transform="matrix(1,0,0,1,0,-128)">
            <g id="Arms_Rank_01" transform="matrix(1,0,0,1,0,-768)">
                <g id="background" transform="matrix(1,0,0,1,-128,0)">
                    <path d="M147,922L151,926L151,930L152,931L152,932L151,933L151,937L152,938L152,945L151,946L151,951L172,951L172,946L171.5,945L171.5,938L172,937L172,933L171,932L171,931L172,930L172,926L171,925L171,922L172,920.5L171,919L171,917L172,916L172,913L171,912L171,907L167,903L166,903L164.5,904L163,903L160.021,903L158.575,904L156.992,903L154.047,903L152.506,904L151,903L145.5,909.5L147,922Z" style="fill-opacity:0.76;"/>
                </g>
                <g id="color_02" transform="matrix(1,0,0,1,-128,0)">
                    <path d="M147,908L144,908L144,919L147,922L147,908ZM154,903L151,903L151,913L154,913L154,903ZM160,903L157,903L157,913L160,913L160,903ZM166,903L163,903L163,913L166,913L166,903ZM172,906L169,906L169,913L172,913L172,906Z" style="fill:rgb(136,136,136);"/>
                </g>
                <g id="color_01" transform="matrix(1,0,0,1,-128,0)">
                    <path d="M176,950L148,950L148,953L176,953L176,950ZM172,937L151,937L151,946L172,946L172,937ZM156,941C156,940.448 155.552,940 155,940L154,940C153.448,940 153,940.448 153,941L153,942C153,942.552 153.448,943 154,943L155,943C155.552,943 156,942.552 156,942L156,941ZM166,941C166,940.448 165.552,940 165,940L164,940C163.448,940 163,940.448 163,941L163,942C163,942.552 163.448,943 164,943L165,943C165.552,943 166,942.552 166,942L166,941ZM161,941C161,940.448 160.552,940 160,940L159,940C158.448,940 158,940.448 158,941L158,942C158,942.552 158.448,943 159,943L160,943C160.552,943 161,942.552 161,942L161,941ZM171,941C171,940.448 170.552,940 170,940L169,940C168.448,940 168,940.448 168,941L168,942C168,942.552 168.448,943 169,943L170,943C170.552,943 171,942.552 171,942L171,941ZM172,930L151,930L151,933L172,933L172,930ZM172,917C172,917 172,916 171,916L152,916C151,916 151,917 151,917L151,926L172,926.045L172,917ZM156,920C156,919.448 155.552,919 155,919L154,919C153.448,919 153,919.448 153,920L153,921C153,921.552 153.448,922 154,922L155,922C155.552,922 156,921.552 156,921L156,920ZM166,920C166,919.448 165.552,919 165,919L164,919C163.448,919 163,919.448 163,920L163,921C163,921.552 163.448,922 164,922L165,922C165.552,922 166,921.552 166,921L166,920ZM161,920C161,919.448 160.552,919 160,919L159,919C158.448,919 158,919.448 158,920L158,921C158,921.552 158.448,922 159,922L160,922C160.552,922 161,921.552 161,921L161,920ZM171,920C171,919.448 170.552,919 170,919L169,919C168.448,919 168,919.448 168,920L168,921C168,921.552 168.448,922 169,922L170,922C170.552,922 171,921.552 171,921L171,920Z" style="fill:rgb(190,190,190);"/>
                </g>
            </g>
        </g>
    </symbol>
    <symbol id="icon-chest1" viewBox="0 0 64 64">
        <g transform="matrix(1,0,0,1,0,-64)">
            <g id="Chest_Rank_01" transform="matrix(1,0,0,1,0,-832)">
                <g id="background" transform="matrix(1,0,0,1,-64,0)">
                    <path d="M101,909L107,903L117,903L120,906L120,915L115,915L115,919L114,920L115,921L115,925L114,925.5L115,926L115,930L111,934L111,941L117,947L117,950L116,951L76,951L75,950L75,947L81,941L81,934L77,930L77,926L78,925.5L77,925L77,921L78,920L77,919L77,915L72,915L72,906L75,903L85,903L91,909L101,909Z" style="fill-opacity:0.76;"/>
                </g>
                <g id="Color_02" transform="matrix(1,0,0,1,-64,0)">
                    <path d="M75,947L78,944L114,944L117,947L75,947ZM115,925C115,924.448 114.552,924 114,924L113,924C112.448,924 112,924.448 112,925L112,926C112,926.552 112.448,927 113,927L114,927C114.552,927 115,926.552 115,926L115,925ZM80,925C80,924.448 79.552,924 79,924L78,924C77.448,924 77,924.448 77,925L77,926C77,926.552 77.448,927 78,927L79,927C79.552,927 80,926.552 80,926L80,925ZM83,924L83,922C83,922 83,921 82,921L77,921L77,919L79,919L84,914L84,916C84,916 84,917 85,917L89,917C90,917 90,916 90,916L90,909L102,909L102,916C102,916 102,917 103,917L107,917C108,917 108,916 108,916L108,914L113,919L115,919L115,921L110,921C109,921 109,922 109,922L109,924L83,924Z" style="fill:rgb(136,136,136);"/>
                </g>
                <g id="color_01" transform="matrix(1,0,0,1,-64,0)">
                    <path d="M117,950L75,950L75,954L117,954L117,950ZM80,942L80,936L77,933L77,930L83,930L83,928C83,928 83,927 84,927L108,927C109,927 109,928 109,928L109,930L115,930L115,933L112,936L112,942L80,942ZM98,938C98,937.448 97.552,937 97,937L95,937C94.448,937 94,937.448 94,938L94,939C94,939.552 94.448,940 95,940L97,940C97.552,940 98,939.552 98,939L98,938ZM110,938C110,937.448 109.552,937 109,937L107,937C106.448,937 106,937.448 106,938L106,939C106,939.552 106.448,940 107,940L109,940C109.552,940 110,939.552 110,939L110,938ZM104,938C104,937.448 103.552,937 103,937L101,937C100.448,937 100,937.448 100,938L100,939C100,939.552 100.448,940 101,940L103,940C103.552,940 104,939.552 104,939L104,938ZM92,938C92,937.448 91.552,937 91,937L89,937C88.448,937 88,937.448 88,938L88,939C88,939.552 88.448,940 89,940L91,940C91.552,940 92,939.552 92,939L92,938ZM86,938C86,937.448 85.552,937 85,937L83,937C82.448,937 82,937.448 82,938L82,939C82,939.552 82.448,940 83,940L85,940C85.552,940 86,939.552 86,939L86,938ZM107,902L117,902L121,906L121,916L114,916L107,909L107,902ZM85,902L75,902L71,906L71,916L78,916L85,909L85,902ZM117,910C118.104,910 119,910.896 119,912C119,913.104 118.104,914 117,914C115.896,914 115,913.104 115,912C115,910.896 115.896,910 117,910ZM75,910C73.896,910 73,910.896 73,912C73,913.104 73.896,914 75,914C76.104,914 77,913.104 77,912C77,910.896 76.104,910 75,910ZM117,905C118.104,905 119,905.896 119,907C119,908.104 118.104,909 117,909C115.896,909 115,908.104 115,907C115,905.896 115.896,905 117,905ZM75,905C73.896,905 73,905.896 73,907C73,908.104 73.896,909 75,909C76.104,909 77,908.104 77,907C77,905.896 76.104,905 75,905Z" style="fill:rgb(190,190,190);"/>
                </g>
            </g>
        </g>
    </symbol>
    <symbol id="icon-torso1" viewBox="0 0 64 64">
        <g transform="matrix(1,0,0,1,0,-192)">
            <g id="Torso_Rank_01" transform="matrix(1,0,0,1,0,-704)">
                <g id="background" transform="matrix(1,0,0,1,-192,0)">
                    <path d="M220,949.5L220,935L217,929L215,929L210,933L210,945L205,950L199,950L198,949L198,946L199,945L199,943L198,942L198,938L203,923L204,922L203,921L203,917L204,916L203,915L203,912L204,910.984L203,910L203,907L204,906L244,906L245,907L245,910L244,910.984L245,912L245,915L244,916L245,917L245,921L244,922L245,923L250,938L250,942L249,943L249,945L250,946L250,949L249,950L243,950L238,945L238,933L233,929L231,929L228,935L228,949.5L220,949.5Z" style="fill-opacity:0.76;"/>
                </g>
                <g id="Color_03" transform="matrix(1,0,0,1,-192,0)">
                    <path d="M242,941L242,944L244,946L250,946L250,942C250,942 250,941 249,941L242,941ZM206,941L206,944L204,946L198,946L198,942C198,942 198,941 199,941L206,941ZM248,934C250,934 250,936 250,936L250,938L242,938L242,934L248,934ZM200,934C198,934 198,936 198,936L198,938L206,938L206,934L200,934Z" style="fill:rgb(109,109,109);"/>
                </g>
                <g id="Color_02" transform="matrix(1,0,0,1,-192,0)">
                    <path d="M226,946C226,945.448 225.552,945 225,945L223,945C222.448,945 222,945.448 222,946C222,946.552 222.448,947 223,947L225,947C225.552,947 226,946.552 226,946ZM226,941C226,940.448 225.552,940 225,940L223,940C222.448,940 222,940.448 222,941C222,941.552 222.448,942 223,942L225,942C225.552,942 226,941.552 226,941ZM226,935C226,934.448 225.552,934 225,934L223,934C222.448,934 222,934.448 222,935C222,935.552 222.448,936 223,936L225,936C225.552,936 226,935.552 226,935ZM206,927C206,926.448 205.552,926 205,926L202,926C201.448,926 201,926.448 201,927L201,929C201,929.552 201.448,930 202,930L205,930C205.552,930 206,929.552 206,929L206,927ZM218,927C218,926.448 217.552,926 217,926L215,926C214.448,926 214,926.448 214,927L214,929C214,929.552 214.448,930 215,930L217,930C217.552,930 218,929.552 218,929L218,927ZM230,927C230,926.448 230.448,926 231,926L233,926C233.552,926 234,926.448 234,927L234,929C234,929.552 233.552,930 233,930L231,930C230.448,930 230,929.552 230,929L230,927ZM242,927C242,926.448 242.448,926 243,926L246,926C246.552,926 247,926.448 247,927L247,929C247,929.552 246.552,930 246,930L243,930C242.448,930 242,929.552 242,929L242,927ZM211,927C211,926.448 210.552,926 210,926C209.448,926 209,926.448 209,927C209,927.552 209.448,928 210,928C210.552,928 211,927.552 211,927ZM237,927C237,926.448 237.448,926 238,926C238.552,926 239,926.448 239,927C239,927.552 238.552,928 238,928C237.448,928 237,927.552 237,927ZM225,926L223,926C223,926 222,926 222,927C222,928 223,928 223,928L225,928C225,928 226,928 226,927C226,926 225,926 225,926Z" style="fill:rgb(136,136,136);"/>
                </g>
                <g id="Color_01" transform="matrix(1,0,0,1,-192,0)">
                    <path d="M220,951C219,951 219,950 219,950L219,935C219,935 219,934 220,934C221,934 221,935 221,935L221,949L227,949L227,935C227,935 227,934 228,934C229,934 229,935 229,935L229,950C229,950 229,951 228,951L220,951ZM238,932C237,932 237,933 237,933L237,946L242,951L250,951L250,949L243,949L239,945L239,933C239,933 239,932 238,932ZM210,932C211,932 211,933 211,933L211,946L206,951L198,951L198,949L205,949L209,945L209,933C209,933 209,932 210,932ZM235,916C235,915.448 234.552,915 234,915L227,915C226.448,915 226,915.448 226,916L226,922C226,922.552 226.448,923 227,923L234,923C234.552,923 235,922.552 235,922L235,916ZM245,917C245,917 242,917 242,917C241.448,917 241,917.448 241,918L241,920C241,920.552 241.448,921 242,921L245,921C245,921 245,923 245,923L240,923C239.448,923 239,922.552 239,922L239,916C239,915.448 239.448,915 240,915L245,915L245,917ZM213,916C213,915.448 213.448,915 214,915L221,915C221.552,915 222,915.448 222,916L222,922C222,922.552 221.552,923 221,923L214,923C213.448,923 213,922.552 213,922L213,916ZM203,917C203,917 206,917 206,917C206.552,917 207,917.448 207,918L207,920C207,920.552 206.552,921 206,921L203,921C203,921 203,923 203,923L208,923C208.552,923 209,922.552 209,922L209,916C209,915.448 208.552,915 208,915L203,915L203,917ZM233,918C233,917.448 232.552,917 232,917L229,917C228.448,917 228,917.448 228,918L228,920C228,920.552 228.448,921 229,921L232,921C232.552,921 233,920.552 233,920L233,918ZM215,918C215,917.448 215.448,917 216,917L219,917C219.552,917 220,917.448 220,918L220,920C220,920.552 219.552,921 219,921L216,921C215.448,921 215,920.552 215,920L215,918ZM245,907C245,907 244,907 244,907C243.448,907 243,907.448 243,908L243,909C243,909.552 243.448,910 244,910L245,910C245,910 245,912 245,912L203,912L203,910C203,910 204,910 204,910C204.552,910 205,909.552 205,909L205,908C205,907.448 204.552,907 204,907L203,907C203,907 203,905 203,905L245,905L245,907ZM228,908C228,907.448 227.552,907 227,907L226,907C225.448,907 225,907.448 225,908L225,909C225,909.552 225.448,910 226,910L227,910C227.552,910 228,909.552 228,909L228,908ZM234,908C234,907.448 233.552,907 233,907L232,907C231.448,907 231,907.448 231,908L231,909C231,909.552 231.448,910 232,910L233,910C233.552,910 234,909.552 234,909L234,908ZM240,908C240,907.448 239.552,907 239,907L238,907C237.448,907 237,907.448 237,908L237,909C237,909.552 237.448,910 238,910L239,910C239.552,910 240,909.552 240,909L240,908ZM211,908C211,907.448 210.552,907 210,907L209,907C208.448,907 208,907.448 208,908L208,909C208,909.552 208.448,910 209,910L210,910C210.552,910 211,909.552 211,909L211,908ZM217,908C217,907.448 216.552,907 216,907L215,907C214.448,907 214,907.448 214,908L214,909C214,909.552 214.448,910 215,910L216,910C216.552,910 217,909.552 217,909L217,908ZM223,908C223,907.448 222.552,907 222,907L221,907C220.448,907 220,907.448 220,908L220,909C220,909.552 220.448,910 221,910L222,910C222.552,910 223,909.552 223,909L223,908Z" style="fill:rgb(190,190,190);"/>
                </g>
            </g>
        </g>
    </symbol>
    <symbol id="icon-legs1" viewBox="0 0 64 64">
        <g transform="matrix(1,0,0,1,0,-256)">
            <g id="Legs_Rank_01" transform="matrix(1,0,0,1,0,-640)">
                <g id="background" transform="matrix(1,0,0,1,-256,0)">
                    <path d="M273,933L266,934L263,937L263,939L264,940L263,941L263,943L264,944L263,945L263,947L266,950L273,951L278,951L280,950L282,951L287,951L288.5,950L290,951L292,951L295.523,950L299,951L302,951L308,937L307,933L304,931L304,926L303,923.5L304,921L304,916L303,913.5L304,911L304,906L286,906L286,911L287,913.5L286,916L286,921L287,923.5L286,926L286,933L282,933L280,934L278,933L273,933Z" style="fill-opacity:0.76;"/>
                </g>
                <g id="Color_02" transform="matrix(1,0,0,1,-256,0)">
                    <path d="M263,937C263,934.792 264.792,933 267,933L273,933L273,951L267,951C264.792,951 263,949.208 263,947L268,947C268.552,947 269,946.552 269,946C269,945.448 268.552,945 268,945L263,945L263,943L268,943C268.552,943 269,942.552 269,942C269,941.448 268.552,941 268,941L263,941L263,939L268,939C268.552,939 269,938.552 269,938C269,937.448 268.552,937 268,937L263,937ZM290,940C290,939.448 289.552,939 289,939L288,939C287.448,939 287,939.448 287,940L287,951L290,951L290,940ZM302,942C303,942 307,938 307,937L307,933C307,933 312,936 312,938L312,946C312,947 308,951 307,951L302,951C302,951 301,950.916 301,949.958L301,943C301,943 301,942 302,942Z" style="fill:rgb(136,136,136);"/>
                </g>
                <g id="Color_01" transform="matrix(1,0,0,1,-256,0)">
                    <path d="M304.045,931L287,931C286,931 286,932 286,932L286,935.955C286,935.955 286,937 287,937L291,937C291,937 292,937 292,938L292,951L299,951L299,941L304.045,935.955L304.045,931ZM283,934C283,933.448 282.552,933 282,933L278,933C277.448,933 277,933.448 277,934L277,950C277,950.552 277.448,951 278,951L282,951C282.552,951 283,950.552 283,950L283,934ZM295.5,946C296.328,946 297,946.672 297,947.5C297,948.328 296.328,949 295.5,949C294.672,949 294,948.328 294,947.5C294,946.672 294.672,946 295.5,946ZM280,945.5C280.828,945.5 281.5,946.172 281.5,947C281.5,947.828 280.828,948.5 280,948.5C279.172,948.5 278.5,947.828 278.5,947C278.5,946.172 279.172,945.5 280,945.5ZM280,940.5C280.828,940.5 281.5,941.172 281.5,942C281.5,942.828 280.828,943.5 280,943.5C279.172,943.5 278.5,942.828 278.5,942C278.5,941.172 279.172,940.5 280,940.5ZM280,935.5C280.828,935.5 281.5,936.172 281.5,937C281.5,937.828 280.828,938.5 280,938.5C279.172,938.5 278.5,937.828 278.5,937C278.5,936.172 279.172,935.5 280,935.5ZM304,921C304,920.448 303.552,920 303,920L287,920C286.448,920 286,920.448 286,921L286,926C286,926.552 286.448,927 287,927L303,927C303.552,927 304,926.552 304,926L304,921ZM289.5,922C290.328,922 291,922.672 291,923.5C291,924.328 290.328,925 289.5,925C288.672,925 288,924.328 288,923.5C288,922.672 288.672,922 289.5,922ZM300.5,922C301.328,922 302,922.672 302,923.5C302,924.328 301.328,925 300.5,925C299.672,925 299,924.328 299,923.5C299,922.672 299.672,922 300.5,922ZM295,922C296.656,922 298,922.672 298,923.5C298,924.328 296.656,925 295,925C293.344,925 292,924.328 292,923.5C292,922.672 293.344,922 295,922ZM304,911C304,910.448 303.552,910 303,910L287,910C286.448,910 286,910.448 286,911L286,916C286,916.552 286.448,917 287,917L303,917C303.552,917 304,916.552 304,916L304,911ZM295,912C296.656,912 298,912.672 298,913.5C298,914.328 296.656,915 295,915C293.344,915 292,914.328 292,913.5C292,912.672 293.344,912 295,912ZM289.5,912C290.328,912 291,912.672 291,913.5C291,914.328 290.328,915 289.5,915C288.672,915 288,914.328 288,913.5C288,912.672 288.672,912 289.5,912ZM300.5,912C301.328,912 302,912.672 302,913.5C302,914.328 301.328,915 300.5,915C299.672,915 299,914.328 299,913.5C299,912.672 299.672,912 300.5,912ZM306,905C306,904.448 305.552,904 305,904L285,904C284.448,904 284,904.448 284,905L284,906C284,906.552 284.448,907 285,907L305,907C305.552,907 306,906.552 306,906L306,905Z" style="fill:rgb(190,190,190);"/>
                </g>
            </g>
        </g>
    </symbol>
    <symbol id="icon-avatar" viewBox="0 0 16 16">
        <path d="m 8 1 c -1.65625 0 -3 1.34375 -3 3 s 1.34375 3 3 3 s 3 -1.34375 3 -3 s -1.34375 -3 -3 -3 z m -1.5 7 c -2.492188 0 -4.5 2.007812 -4.5 4.5 v 0.5 c 0 1.109375 0.890625 2 2 2 h 8 c 1.109375 0 2 -0.890625 2 -2 v -0.5 c 0 -2.492188 -2.007812 -4.5 -4.5 -4.5 z m 0 0"/>
    </symbol>

    <!-- Icons go here -->
  </defs>
</svg>